<svg width="21" height="21" viewBox="0 0 21 21" fill="none" xmlns="http://www.w3.org/2000/svg">
<path d="M15.098 2.16479H5.16905C2.99276 2.16479 1.23047 3.92708 1.23047 6.10338V16.0286C1.23047 18.2086 2.99276 19.9709 5.16905 19.9709H15.0943C17.2706 19.9709 19.0329 18.2086 19.0329 16.0323V6.10338C19.0365 3.92708 17.2743 2.16479 15.098 2.16479Z" fill="url(#paint0_linear_331_3280)"/>
<path d="M13.6674 8.32738C14.0963 8.32738 14.4441 7.97963 14.4441 7.55065C14.4441 7.12168 14.0963 6.77393 13.6674 6.77393C13.2384 6.77393 12.8906 7.12168 12.8906 7.55065C12.8906 7.97963 13.2384 8.32738 13.6674 8.32738Z" fill="white"/>
<path d="M12.9843 4.47314H7.28347C5.21708 4.47314 3.53906 6.15117 3.53906 8.21755V13.9184C3.53906 15.9848 5.21708 17.6628 7.28347 17.6628H12.9843C15.0507 17.6628 16.7287 15.9811 16.7287 13.9184V8.21755C16.7287 6.15117 15.0507 4.47314 12.9843 4.47314ZM15.538 13.9184C15.538 15.3253 14.3912 16.4721 12.9843 16.4721H7.28347C5.87657 16.4721 4.7298 15.3253 4.7298 13.9184V8.21755C4.7298 6.81065 5.87657 5.66388 7.28347 5.66388H12.9843C14.3912 5.66388 15.538 6.81065 15.538 8.21755V13.9184Z" fill="white"/>
<path d="M10.1322 7.63501C8.23801 7.63501 6.69922 9.17381 6.69922 11.068C6.69922 12.9622 8.23801 14.501 10.1322 14.501C12.0264 14.501 13.5652 12.9622 13.5652 11.068C13.5652 9.17381 12.0264 7.63501 10.1322 7.63501ZM10.1322 13.3102C8.8975 13.3102 7.88995 12.3027 7.88995 11.068C7.88995 9.83329 8.8975 8.82574 10.1322 8.82574C11.3669 8.82574 12.3744 9.83329 12.3744 11.068C12.3744 12.3027 11.3669 13.3102 10.1322 13.3102Z" fill="white"/>
<defs>
<linearGradient id="paint0_linear_331_3280" x1="15.6707" y1="1.85239" x2="4.59631" y2="20.2833" gradientUnits="userSpaceOnUse">
<stop stop-color="#4845A2"/>
<stop offset="0.0453646" stop-color="#5945A2"/>
<stop offset="0.1713" stop-color="#8444A1"/>
<stop offset="0.2698" stop-color="#9E44A1"/>
<stop offset="0.3282" stop-color="#A844A1"/>
<stop offset="0.3905" stop-color="#AB429A"/>
<stop offset="0.4788" stop-color="#B43C88"/>
<stop offset="0.4896" stop-color="#B53B85"/>
<stop offset="0.5577" stop-color="#BE3572"/>
<stop offset="0.6762" stop-color="#D22749"/>
<stop offset="0.7388" stop-color="#DF4F3E"/>
<stop offset="0.8559" stop-color="#F9A326"/>
<stop offset="1" stop-color="#F9DD26"/>
</linearGradient>
</defs>
</svg>
