<svg width="18" height="19" viewBox="0 0 18 19" fill="none" xmlns="http://www.w3.org/2000/svg">
<path d="M15.9259 0.967041C16.4505 0.967041 16.9536 1.17544 17.3246 1.5464C17.6956 1.91735 17.904 2.42048 17.904 2.94509V16.7914C17.904 17.316 17.6956 17.8191 17.3246 18.1901C16.9536 18.5611 16.4505 18.7695 15.9259 18.7695H2.07961C1.555 18.7695 1.05187 18.5611 0.680922 18.1901C0.309959 17.8191 0.101562 17.316 0.101562 16.7914V2.94509C0.101562 2.42048 0.309959 1.91735 0.680922 1.5464C1.05187 1.17544 1.555 0.967041 2.07961 0.967041H15.9259ZM15.4314 16.2969V11.0551C15.4314 10.2 15.0917 9.37987 14.4871 8.77518C13.8824 8.17059 13.0623 7.83086 12.2072 7.83086C11.3665 7.83086 10.3874 8.34515 9.91267 9.11659V8.01877H7.1533V16.2969H9.91267V11.421C9.91267 10.6595 10.5259 10.0364 11.2874 10.0364C11.6546 10.0364 12.0068 10.1823 12.2664 10.442C12.5262 10.7016 12.672 11.0538 12.672 11.421V16.2969H15.4314ZM3.93897 6.46601C4.37964 6.46601 4.80227 6.29095 5.11387 5.97935C5.42547 5.66775 5.60053 5.24512 5.60053 4.80445C5.60053 3.88466 4.85876 3.133 3.93897 3.133C3.49567 3.133 3.07054 3.3091 2.75708 3.62256C2.44362 3.93602 2.26752 4.36115 2.26752 4.80445C2.26752 5.72424 3.01918 6.46601 3.93897 6.46601ZM5.31371 16.2969V8.01877H2.57412V16.2969H5.31371Z" fill="url(#paint0_linear_331_3288)"/>
<defs>
<linearGradient id="paint0_linear_331_3288" x1="9.00277" y1="0.967041" x2="9.00277" y2="18.7695" gradientUnits="userSpaceOnUse">
<stop stop-color="#659DF8"/>
<stop offset="1" stop-color="#4285F4"/>
</linearGradient>
</defs>
</svg>
