<svg width="18" height="14" viewBox="0 0 18 14" fill="none" xmlns="http://www.w3.org/2000/svg">
<path d="M1.64889 10.3051C1.67712 10.3442 1.71694 10.3734 1.76271 10.3885L2.99073 10.7975C3.26072 10.8874 3.50605 11.039 3.70728 11.2403C3.90851 11.4415 4.06011 11.6868 4.15006 11.9568L4.55905 13.1848C4.57421 13.2306 4.6034 13.2704 4.64248 13.2987C4.68156 13.3269 4.72855 13.3421 4.77676 13.3421C4.82497 13.3421 4.87195 13.3269 4.91103 13.2987C4.95011 13.2704 4.97931 13.2306 4.99446 13.1848L5.40345 11.9568C5.4934 11.6868 5.645 11.4415 5.84623 11.2403C6.04746 11.039 6.29279 10.8874 6.56278 10.7975L7.7908 10.3885C7.83657 10.3734 7.87639 10.3442 7.90462 10.3051C7.93285 10.266 7.94804 10.219 7.94804 10.1708C7.94804 10.1226 7.93285 10.0756 7.90462 10.0365C7.87639 9.99744 7.83657 9.96825 7.7908 9.9531L6.56278 9.54411C6.29279 9.45415 6.04746 9.30256 5.84623 9.10133C5.645 8.9001 5.4934 8.65477 5.40345 8.38478L4.99446 7.15675C4.9793 7.11099 4.95011 7.07116 4.91103 7.04293C4.87195 7.01471 4.82496 6.99951 4.77675 6.99951C4.72854 6.99951 4.68156 7.01471 4.64248 7.04293C4.6034 7.07116 4.5742 7.11099 4.55905 7.15675L4.15006 8.38478C3.96723 8.93221 3.53816 9.36128 2.99073 9.54411L1.76271 9.9531C1.71694 9.96825 1.67712 9.99744 1.64889 10.0365C1.62066 10.0756 1.60547 10.1226 1.60547 10.1708C1.60547 10.219 1.62066 10.266 1.64889 10.3051Z" fill="#DDDDDD"/>
<path d="M7.14633 5.58009C6.79758 5.69634 6.79758 6.18882 7.14633 6.30507L9.19338 6.98672C9.64327 7.13665 10.0521 7.38928 10.3874 7.72459C10.7227 8.05991 10.9753 8.4687 11.1252 8.91858L11.8069 10.9656C11.832 11.042 11.8805 11.1085 11.9456 11.1557C12.0107 11.2028 12.089 11.2282 12.1694 11.2282C12.2498 11.2282 12.3281 11.2028 12.3932 11.1557C12.4583 11.1085 12.5068 11.042 12.5319 10.9656L13.2135 8.91858C13.3635 8.4687 13.6161 8.05991 13.9514 7.72459C14.2867 7.38928 14.6955 7.13665 15.1454 6.98671L17.1924 6.30507C17.2688 6.28 17.3353 6.23146 17.3825 6.16637C17.4296 6.10127 17.455 6.02295 17.455 5.94258C17.455 5.8622 17.4296 5.78388 17.3825 5.71879C17.3353 5.65369 17.2688 5.60515 17.1924 5.58009L15.1464 4.89844C14.6964 4.74865 14.2874 4.49608 13.9519 4.16076C13.6163 3.82544 13.3636 3.41657 13.2135 2.96658L12.5319 0.919521C12.4156 0.570771 11.9231 0.570771 11.8069 0.919522L11.1252 2.96552C10.9755 3.4156 10.7229 3.8246 10.3876 4.16011C10.0522 4.49561 9.64338 4.7484 9.19338 4.89844L7.14633 5.58009Z" fill="white"/>
<path d="M0.574289 2.85887C0.592756 2.88482 0.618849 2.90437 0.648941 2.9148H0.649997L1.46692 3.1864C1.83258 3.30793 2.11897 3.59433 2.24051 3.95999L2.51317 4.77797C2.5236 4.80806 2.54315 4.83415 2.5691 4.85262C2.59505 4.87109 2.6261 4.88101 2.65795 4.88101C2.6898 4.88101 2.72086 4.87109 2.74681 4.85262C2.77275 4.83415 2.7923 4.80806 2.80274 4.77797L3.0754 3.96105C3.13534 3.78085 3.23647 3.6171 3.37076 3.48282C3.50504 3.34853 3.66879 3.2474 3.84899 3.18746L4.66696 2.9148C4.69705 2.90436 4.72315 2.88482 4.74162 2.85887C4.76008 2.83292 4.77001 2.80186 4.77001 2.77001C4.77001 2.73816 4.76008 2.70711 4.74162 2.68116C4.72315 2.65521 4.69705 2.63566 4.66696 2.62523L3.84899 2.35257C3.66879 2.29262 3.50504 2.19149 3.37076 2.05721C3.23647 1.92292 3.13534 1.75918 3.07539 1.57898L2.80274 0.761002C2.7923 0.73091 2.77275 0.704817 2.74681 0.68635C2.72086 0.667882 2.6898 0.657959 2.65795 0.657959C2.6261 0.657959 2.59505 0.667882 2.5691 0.68635C2.54315 0.704817 2.5236 0.73091 2.51317 0.761002L2.24051 1.57898C2.11897 1.94464 1.83258 2.23104 1.46692 2.35257L0.648941 2.62523C0.618849 2.63566 0.592756 2.65521 0.574289 2.68116C0.555821 2.70711 0.545898 2.73816 0.545898 2.77001C0.545898 2.80186 0.555821 2.83292 0.574289 2.85887Z" fill="#DDDDDD"/>
</svg>
