<svg width="24" height="23" viewBox="0 0 24 23" fill="none" xmlns="http://www.w3.org/2000/svg">
<circle cx="11.7941" cy="11.3833" r="11.379" fill="#262626"/>
<path d="M17.2534 6.26715C16.2444 5.79682 15.152 5.45545 14.0141 5.25821C14.0042 5.25789 13.9942 5.25977 13.9851 5.2637C13.9759 5.26763 13.9677 5.27353 13.961 5.28097C13.8245 5.53131 13.6652 5.85751 13.559 6.10785C12.352 5.92578 11.1246 5.92578 9.91769 6.10785C9.81148 5.84992 9.65218 5.53131 9.50804 5.28097C9.50046 5.2658 9.4777 5.25821 9.45494 5.25821C8.31704 5.45545 7.23224 5.79682 6.21572 6.26715C6.20813 6.26715 6.20054 6.27474 6.19296 6.28232C4.12956 9.36983 3.56061 12.3739 3.8413 15.3476C3.8413 15.3628 3.84888 15.3779 3.86405 15.3855C5.22953 16.3869 6.54191 16.9938 7.83912 17.3958C7.86188 17.4034 7.88464 17.3958 7.89222 17.3807C8.19566 16.9634 8.46876 16.5234 8.70393 16.0607C8.7191 16.0303 8.70393 16 8.67358 15.9924C8.24118 15.8255 7.83154 15.6283 7.42948 15.4007C7.39913 15.3855 7.39913 15.34 7.42189 15.3173C7.50534 15.2566 7.58878 15.1883 7.67223 15.1276C7.6874 15.1124 7.71016 15.1124 7.72533 15.12C10.3349 16.311 13.1493 16.311 15.7286 15.12C15.7437 15.1124 15.7665 15.1124 15.7817 15.1276C15.8651 15.1959 15.9486 15.2566 16.032 15.3248C16.0624 15.3476 16.0624 15.3931 16.0244 15.4083C15.63 15.6435 15.2127 15.8331 14.7803 16C14.75 16.0076 14.7424 16.0455 14.75 16.0683C14.9927 16.531 15.2658 16.971 15.5617 17.3882C15.5844 17.3958 15.6072 17.4034 15.63 17.3958C16.9347 16.9938 18.2471 16.3869 19.6126 15.3855C19.6278 15.3779 19.6354 15.3628 19.6354 15.3476C19.9691 11.9111 19.0816 8.92984 17.2837 6.28232C17.2761 6.27474 17.2685 6.26715 17.2534 6.26715ZM9.0984 13.5345C8.31704 13.5345 7.66464 12.8139 7.66464 11.9263C7.66464 11.0388 8.30187 10.3181 9.0984 10.3181C9.90252 10.3181 10.5397 11.0463 10.5322 11.9263C10.5322 12.8139 9.89493 13.5345 9.0984 13.5345ZM14.3858 13.5345C13.6045 13.5345 12.9521 12.8139 12.9521 11.9263C12.9521 11.0388 13.5893 10.3181 14.3858 10.3181C15.19 10.3181 15.8272 11.0463 15.8196 11.9263C15.8196 12.8139 15.19 13.5345 14.3858 13.5345Z" fill="#FAFAFA"/>
</svg>
