<svg width="24" height="23" viewBox="0 0 24 23" fill="none" xmlns="http://www.w3.org/2000/svg">
<circle cx="11.9679" cy="11.4118" r="11.379" fill="#262626"/>
<path d="M8.72703 3.77087H15.0993C17.5268 3.77087 19.4992 5.74324 19.4992 8.17076V14.543C19.4992 15.7099 19.0356 16.8291 18.2105 17.6542C17.3853 18.4793 16.2662 18.9429 15.0993 18.9429H8.72703C6.29951 18.9429 4.32715 16.9705 4.32715 14.543V8.17076C4.32715 7.00384 4.79071 5.88471 5.61584 5.05957C6.44098 4.23443 7.56011 3.77087 8.72703 3.77087ZM8.57531 5.28808C7.85102 5.28808 7.15639 5.5758 6.64423 6.08796C6.13208 6.60011 5.84435 7.29474 5.84435 8.01904V14.6947C5.84435 16.2043 7.0657 17.4257 8.57531 17.4257H15.251C15.9753 17.4257 16.6699 17.138 17.1821 16.6258C17.6942 16.1137 17.982 15.419 17.982 14.6947V8.01904C17.982 6.50942 16.7606 5.28808 15.251 5.28808H8.57531ZM15.8958 6.42598C16.1473 6.42598 16.3885 6.52588 16.5663 6.70371C16.7442 6.88154 16.8441 7.12274 16.8441 7.37423C16.8441 7.62572 16.7442 7.86691 16.5663 8.04474C16.3885 8.22257 16.1473 8.32248 15.8958 8.32248C15.6443 8.32248 15.4031 8.22257 15.2253 8.04474C15.0475 7.86691 14.9476 7.62572 14.9476 7.37423C14.9476 7.12274 15.0475 6.88154 15.2253 6.70371C15.4031 6.52588 15.6443 6.42598 15.8958 6.42598ZM11.9132 7.56388C12.9191 7.56388 13.8839 7.9635 14.5952 8.67482C15.3065 9.38615 15.7062 10.3509 15.7062 11.3569C15.7062 12.3628 15.3065 13.3276 14.5952 14.0389C13.8839 14.7503 12.9191 15.1499 11.9132 15.1499C10.9072 15.1499 9.94242 14.7503 9.2311 14.0389C8.51977 13.3276 8.12015 12.3628 8.12015 11.3569C8.12015 10.3509 8.51977 9.38615 9.2311 8.67482C9.94242 7.9635 10.9072 7.56388 11.9132 7.56388ZM11.9132 9.08108C11.3096 9.08108 10.7307 9.32085 10.3039 9.74765C9.87713 10.1744 9.63735 10.7533 9.63735 11.3569C9.63735 11.9605 9.87713 12.5393 10.3039 12.9661C10.7307 13.3929 11.3096 13.6327 11.9132 13.6327C12.5167 13.6327 13.0956 13.3929 13.5224 12.9661C13.9492 12.5393 14.189 11.9605 14.189 11.3569C14.189 10.7533 13.9492 10.1744 13.5224 9.74765C13.0956 9.32085 12.5167 9.08108 11.9132 9.08108Z" fill="#FAFAFA"/>
</svg>
