<svg width="23" height="24" viewBox="0 0 23 24" fill="none" xmlns="http://www.w3.org/2000/svg">
<circle cx="11.6212" cy="12.4118" r="11.379" fill="#262626"/>
<path d="M5.81494 17.3335V8.85173H8.73267V17.3335H5.81494ZM7.2738 7.79999C6.79882 7.79999 6.41432 7.66994 6.12028 7.40983C5.82625 7.13841 5.67923 6.78218 5.67923 6.34113C5.67923 5.90007 5.82625 5.54949 6.12028 5.28939C6.41432 5.01797 6.79882 4.88226 7.2738 4.88226C7.74878 4.88226 8.13329 5.01797 8.42732 5.28939C8.72136 5.54949 8.86838 5.90007 8.86838 6.34113C8.86838 6.78218 8.72136 7.13841 8.42732 7.40983C8.13329 7.66994 7.74878 7.79999 7.2738 7.79999ZM10.7019 17.3335V8.85173H13.0768L13.2804 9.86954H13.3482C13.6875 9.54158 14.072 9.25885 14.5017 9.02136C14.9428 8.77257 15.4517 8.64817 16.0284 8.64817C16.9671 8.64817 17.64 8.96482 18.0471 9.59812C18.4655 10.2201 18.6748 11.057 18.6748 12.1087V17.3335H15.757V12.4819C15.757 11.9391 15.6892 11.5772 15.5535 11.3963C15.4178 11.2153 15.2029 11.1248 14.9089 11.1248C14.6374 11.1248 14.4113 11.1814 14.2303 11.2945C14.0494 11.4076 13.8458 11.5659 13.6196 11.7695V17.3335H10.7019Z" fill="#FAFAFA"/>
</svg>
