<svg width="37" height="38" viewBox="0 0 37 38" fill="none" xmlns="http://www.w3.org/2000/svg">
<circle cx="18.5" cy="19" r="18" fill="url(#paint0_linear_212_1966)" stroke="white"/>
<path d="M26.231 22.1956L23.691 21.9188C23.3923 21.8853 23.0896 21.9169 22.8056 22.0111C22.5215 22.1053 22.2635 22.2598 22.051 22.4628L20.211 24.219C17.3724 22.8407 15.0651 20.6385 13.621 17.9291L15.471 16.1634C15.901 15.753 16.111 15.1803 16.041 14.5981L15.751 12.1928C15.6945 11.7271 15.4605 11.2976 15.0935 10.986C14.7265 10.6744 14.2522 10.5027 13.761 10.5034H12.031C10.901 10.5034 9.96102 11.4006 10.031 12.4792C10.561 20.6302 17.391 27.1397 25.921 27.6455C27.051 27.7124 27.991 26.8152 27.991 25.7366V24.0854C28.001 23.1214 27.241 22.3101 26.231 22.1956Z" fill="white"/>
<defs>
<linearGradient id="paint0_linear_212_1966" x1="18.5" y1="1.5" x2="18.5" y2="36.5" gradientUnits="userSpaceOnUse">
<stop stop-color="#F9AB00"/>
<stop offset="1" stop-color="#C98802"/>
</linearGradient>
</defs>
</svg>
