<svg width="37" height="38" viewBox="0 0 37 38" fill="none" xmlns="http://www.w3.org/2000/svg">
<circle cx="18.5" cy="19" r="18" fill="url(#paint0_linear_212_1967)" stroke="white"/>
<path d="M27 10.8525H11C9.9 10.8525 9.01 11.7116 9.01 12.7615L9 24.215C9 25.2649 9.9 26.1239 11 26.1239H27C28.1 26.1239 29 25.2649 29 24.215V12.7615C29 11.7116 28.1 10.8525 27 10.8525ZM26.6 14.909L19.53 19.1277C19.21 19.3186 18.79 19.3186 18.47 19.1277L11.4 14.909C11.2997 14.8553 11.2119 14.7827 11.1419 14.6956C11.0719 14.6086 11.0211 14.5089 10.9926 14.4025C10.9641 14.2962 10.9585 14.1855 10.9762 14.077C10.9938 13.9686 11.0343 13.8646 11.0953 13.7716C11.1562 13.6785 11.2363 13.5982 11.3307 13.5355C11.4251 13.4729 11.5319 13.4291 11.6445 13.407C11.7571 13.3848 11.8733 13.3847 11.9859 13.4066C12.0986 13.4286 12.2055 13.4721 12.3 13.5346L19 17.5338L25.7 13.5346C25.7945 13.4721 25.9014 13.4286 26.014 13.4066C26.1267 13.3847 26.2429 13.3848 26.3555 13.407C26.4681 13.4291 26.5749 13.4729 26.6693 13.5355C26.7637 13.5982 26.8438 13.6785 26.9047 13.7716C26.9657 13.8646 27.0062 13.9686 27.0238 14.077C27.0415 14.1855 27.0359 14.2962 27.0074 14.4025C26.9789 14.5089 26.9281 14.6086 26.8581 14.6956C26.7881 14.7827 26.7003 14.8553 26.6 14.909Z" fill="white"/>
<defs>
<linearGradient id="paint0_linear_212_1967" x1="18.5" y1="1.5" x2="18.5" y2="36.5" gradientUnits="userSpaceOnUse">
<stop stop-color="#EA4335"/>
<stop offset="1" stop-color="#D8261A"/>
</linearGradient>
</defs>
</svg>
