<svg width="37" height="38" viewBox="0 0 37 38" fill="none" xmlns="http://www.w3.org/2000/svg">
<circle cx="18.5" cy="19" r="18" fill="url(#paint0_linear_212_1965)" stroke="white"/>
<path d="M18.4987 18.6458C17.7252 18.6458 16.9833 18.3524 16.4363 17.8304C15.8893 17.3083 15.582 16.6002 15.582 15.8619C15.582 15.1236 15.8893 14.4155 16.4363 13.8934C16.9833 13.3714 17.7252 13.0781 18.4987 13.0781C19.2722 13.0781 20.0141 13.3714 20.5611 13.8934C21.1081 14.4155 21.4154 15.1236 21.4154 15.8619C21.4154 16.2275 21.3399 16.5895 21.1933 16.9272C21.0468 17.265 20.8319 17.5719 20.5611 17.8304C20.2902 18.0889 19.9687 18.294 19.6148 18.4338C19.261 18.5737 18.8817 18.6458 18.4987 18.6458ZM18.4987 8.06714C16.3328 8.06714 14.2555 8.88837 12.724 10.3502C11.1924 11.812 10.332 13.7946 10.332 15.8619C10.332 21.708 18.4987 30.3379 18.4987 30.3379C18.4987 30.3379 26.6654 21.708 26.6654 15.8619C26.6654 13.7946 25.8049 11.812 24.2733 10.3502C22.7419 8.88837 20.6646 8.06714 18.4987 8.06714Z" fill="white"/>
<defs>
<linearGradient id="paint0_linear_212_1965" x1="18.5" y1="1.5" x2="18.5" y2="36.5" gradientUnits="userSpaceOnUse">
<stop stop-color="#34A853"/>
<stop offset="1" stop-color="#298843"/>
</linearGradient>
</defs>
</svg>
