<svg width="25" height="25" viewBox="0 0 25 25" fill="none" xmlns="http://www.w3.org/2000/svg">
<path d="M17.2923 6.0625C16.5804 5.24951 16.188 4.20562 16.1882 3.125H12.9694V16.0417C12.9451 16.7408 12.6501 17.4032 12.1468 17.8891C11.6435 18.3749 10.9711 18.6462 10.2715 18.6458C8.79232 18.6458 7.56315 17.4375 7.56315 15.9375C7.56315 14.1458 9.29232 12.8021 11.0736 13.3542V10.0625C7.47982 9.58333 4.33398 12.375 4.33398 15.9375C4.33398 19.4062 7.20899 21.875 10.2611 21.875C13.5319 21.875 16.1882 19.2188 16.1882 15.9375V9.38542C17.4934 10.3228 19.0604 10.8256 20.6673 10.8229V7.60417C20.6673 7.60417 18.709 7.69792 17.2923 6.0625Z" fill="url(#paint0_linear_171_4920)"/>
<defs>
<linearGradient id="paint0_linear_171_4920" x1="12.5007" y1="3.125" x2="12.5007" y2="21.875" gradientUnits="userSpaceOnUse">
<stop offset="0.283654" stop-color="#EA4335"/>
<stop offset="0.740385" stop-color="#37C2E2"/>
</linearGradient>
</defs>
</svg>
